<?xml version="1.0" encoding="utf-8"?>
<!-- Generator: Adobe Illustrator 30.2.1, SVG Export Plug-In . SVG Version: 9.03 Build 0)  -->
<svg version="1.1" id="Layer_1" xmlns="http://www.w3.org/2000/svg" xmlns:xlink="http://www.w3.org/1999/xlink" x="0px" y="0px"
	 viewBox="0 0 1024 1024" style="enable-background:new 0 0 1024 1024;" xml:space="preserve">
<rect x="0" style="fill:#003A98;" width="1024" height="1024"/>
<g>
	<polyline style="fill:#FDE403;" points="486.8863525,285.2008362 908.0489502,285.2008362 800.0371094,474.4309692 
		765.7322388,416.6984558 809.2474365,340.462738 455.3407898,340.462738 486.8863525,285.2008362 	"/>
	<polyline style="fill:#FDE403;" points="701.7085571,375.1529541 910.3034058,741.0301514 692.416748,740.9193726 
		725.5801392,682.5236816 813.3609009,682.5684204 638.0767822,375.1186218 701.7085571,375.1529541 	"/>
	<polyline style="fill:#FDE403;" points="722.6593018,604.9879761 508.1239014,967.4138184 400.3044739,778.0740356 
		467.4598999,777.9616699 510.8973999,854.2416992 691.1734009,549.6920776 722.6593018,604.9879761 	"/>
	<polyline style="fill:#FDE403;" points="534.8031616,739.2097778 113.696579,732.3396606 224.780838,544.8966675 
		258.1394348,603.1810303 213.3864441,678.6968384 567.2459717,684.4697876 534.8031616,739.2097778 	"/>
	<polyline style="fill:#FDE403;" points="320.987793,650.3803711 118.3888931,281.1492615 336.244751,284.814209 
		302.1332092,342.6611328 214.3648834,341.1845398 384.6105042,651.4526978 320.987793,650.3803711 	"/>
	<polyline style="fill:#FDE403;" points="296.8157349,415.4642639 517.2344971,56.5861511 621.9511108,247.6595612 
		554.8027344,246.6764374 512.6152954,169.697998 327.3954773,471.2664185 296.8157349,415.4642639 	"/>
</g>
</svg>
